<svg xmlns="http://www.w3.org/2000/svg" width="71.802" height="53.413" viewBox="0 0 71.802 53.413"><defs><style>.a{fill:#fff;}.b{fill:#eff1f8;}.c,.d{fill:none;stroke-linejoin:round;stroke-miterlimit:10;}.d{stroke:#75a4fe;stroke-linecap:round;stroke-width:2.5px;}.e,.f{stroke:none;}.f{fill:#75a4fe;}</style></defs><g transform="translate(-159.777 -700.642)"><path class="a" d="M25.5,0A10.508,10.508,0,1,0,46.3,0H71.8V23.373A2.627,2.627,0,0,1,69.175,26H2.627A2.627,2.627,0,0,1,0,23.373V0Z" transform="translate(159.777 728.055)"/><path class="a" d="M47.284,27.144a11.383,11.383,0,1,1-22.766,0q0-.306.016-.607H0L8.371,1.785A2.627,2.627,0,0,1,10.86,0H60.942A2.627,2.627,0,0,1,63.43,1.785L71.8,26.537H47.268Q47.284,26.839,47.284,27.144Z" transform="translate(159.777 700.642)"/><path class="b" d="M37.737,20.1a10.02,10.02,0,0,1-9.717,9.672A10.02,10.02,0,0,1,18.3,20.1c0-.157,0-1.189.014-1.345H0L7.146,1.38A2.237,2.237,0,0,1,9.271,0h37.5a2.237,2.237,0,0,1,2.124,1.38L56.04,18.755H37.724C37.733,18.91,37.737,19.942,37.737,20.1Z" transform="translate(167.656 708.523)"/><g class="c" transform="translate(159.777 700.642)"><path class="e" d="M8.371,1.785A2.627,2.627,0,0,1,10.86,0H60.942A2.627,2.627,0,0,1,63.43,1.785L71.8,26.537V49.911a2.627,2.627,0,0,1-2.627,2.627H2.627A2.627,2.627,0,0,1,0,49.911V26.537Z"/><path class="f" d="M 10.85982131958008 2.499992370605469 C 10.80537414550781 2.499992370605469 10.75705337524414 2.534652709960938 10.73960494995117 2.586238861083984 L 2.499992370605469 26.94866180419922 L 2.499992370605469 49.91085433959961 C 2.499992370605469 49.98080825805664 2.556915283203125 50.0377311706543 2.626884460449219 50.0377311706543 L 69.1746826171875 50.0377311706543 C 69.24465179443359 50.0377311706543 69.30157470703125 49.98080825805664 69.30157470703125 49.91085433959961 L 69.30157470703125 26.94866371154785 L 61.06194305419922 2.586223602294922 C 61.04449844360352 2.534637451171875 60.99620819091797 2.499992370605469 60.9417610168457 2.499992370605469 L 10.85982131958008 2.499992370605469 M 10.85982131958008 -7.62939453125e-06 L 60.9417610168457 -7.62939453125e-06 C 62.06820678710938 -7.62939453125e-06 63.06928253173828 0.7181930541992188 63.43017578125 1.785285949707031 L 71.80157470703125 26.53736114501953 L 71.80157470703125 49.91085433959961 C 71.80157470703125 51.36163711547852 70.62548065185547 52.5377311706543 69.1746826171875 52.5377311706543 L 2.626884460449219 52.5377311706543 C 1.176101684570312 52.5377311706543 -7.62939453125e-06 51.36163711547852 -7.62939453125e-06 49.91085433959961 L -7.62939453125e-06 26.53736114501953 L 8.371391296386719 1.785285949707031 C 8.7322998046875 0.7181930541992188 9.733360290527344 -7.62939453125e-06 10.85982131958008 -7.62939453125e-06 Z"/></g><path class="d" d="M12.392,12.26a10.8,10.8,0,0,1-7.6-3.078,10.322,10.322,0,0,1-3.148-7.43C1.643,1.14,1.643,0,0,0H24.7c-1.563.038-1.563,1.153-1.563,1.752a10.322,10.322,0,0,1-3.148,7.43A10.8,10.8,0,0,1,12.392,12.26Z" transform="translate(183.195 726.91)"/></g></svg>