<svg xmlns="http://www.w3.org/2000/svg" width="7.294" height="13.16" viewBox="0 0 7.294 13.16"><defs><style>.a{fill:#8a98ba;opacity:0.5;}</style></defs><path class="a" d="M7.952-2.59c0-1.876-1.666-2.324-3.248-2.7V-9A5.19,5.19,0,0,1,7.2-8.19l.35-.826A5.493,5.493,0,0,0,4.7-9.884v-1.6H4v1.61C1.862-9.7.9-8.54.9-7.2.9-5.348,2.464-4.872,4-4.494V-.812a4.772,4.772,0,0,1-2.94-1.176l-.406.8A5.25,5.25,0,0,0,4,.084v1.6h.7V.07C6.93-.056,7.952-1.232,7.952-2.59ZM1.918-7.224c0-.882.644-1.624,2.086-1.75v3.5C2.856-5.768,1.918-6.16,1.918-7.224ZM4.7-.812v-3.5c1.2.294,2.226.672,2.226,1.778C6.93-1.638,6.244-.924,4.7-.812Z" transform="translate(-0.658 11.48)"/></svg>