<svg xmlns="http://www.w3.org/2000/svg" width="146.23" height="61.294" viewBox="0 0 146.23 61.294"><defs><style>.a{fill:#f8f9fd;}</style></defs><path class="a" d="M40.279,61.294a6.13,6.13,0,1,1,0-12.259H6.13a6.129,6.129,0,1,1,0-12.258H41.154a6.13,6.13,0,0,0,0-12.259H19.263a6.129,6.129,0,0,1,0-12.258H54.289A6.13,6.13,0,1,1,54.289,0H140.1a6.13,6.13,0,0,1,0,12.259H105.075a6.129,6.129,0,1,1,0,12.258h19.264a6.13,6.13,0,0,1,0,12.259H115.43c-4.268,0-7.728,2.744-7.728,6.129s5.253,6.13,5.253,6.13a6.13,6.13,0,1,1,0,12.259Zm93.692-30.647a6.13,6.13,0,1,1,6.13,6.13A6.129,6.129,0,0,1,133.971,30.647Z"/></svg>