<?xml version="1.0" encoding="UTF-8" standalone="no"?>
<svg
   width="22"
   height="13.16"
   viewBox="0 0 7.294 13.16"
   version="1.1"
   id="svg129"
   sodipodi:docname="maxDollar.svg"
   inkscape:version="1.1 (c4e8f9e, 2021-05-24)"
   xmlns:inkscape="http://www.inkscape.org/namespaces/inkscape"
   xmlns:sodipodi="http://sodipodi.sourceforge.net/DTD/sodipodi-0.dtd"
   xmlns="http://www.w3.org/2000/svg"
   xmlns:svg="http://www.w3.org/2000/svg">
  <sodipodi:namedview
     id="namedview131"
     pagecolor="#ffffff"
     bordercolor="#666666"
     borderopacity="1.0"
     inkscape:pageshadow="2"
     inkscape:pageopacity="0.0"
     inkscape:pagecheckerboard="0"
     showgrid="false"
     inkscape:snap-page="false"
     inkscape:zoom="24.683077"
     inkscape:cx="11.323548"
     inkscape:cy="7.8393793"
     inkscape:window-width="1312"
     inkscape:window-height="847"
     inkscape:window-x="0"
     inkscape:window-y="25"
     inkscape:window-maximized="0"
     inkscape:current-layer="svg129" />
  <defs
     id="defs125">
    <style
       id="style123">.a{fill:#3145c3;}</style>
  </defs>
  <path
     class="a"
     d="M 7.294,8.89 C 7.294,7.014 5.628,6.566 4.046,6.19 V 2.48 A 5.19,5.19 0 0 1 6.542,3.29 L 6.892,2.464 A 5.493,5.493 0 0 0 4.042,1.596 v -1.6 h -0.7 v 1.61 C 1.204,1.78 0.24199998,2.94 0.24199998,4.28 0.24199998,6.132 1.806,6.608 3.342,6.986 v 3.682 A 4.772,4.772 0 0 1 0.40199998,9.492 l -0.406,0.8 A 5.25,5.25 0 0 0 3.342,11.564 v 1.6 h 0.7 V 11.55 C 6.272,11.424 7.294,10.248 7.294,8.89 Z M 1.26,4.256 c 0,-0.882 0.644,-1.624 2.086,-1.75 v 3.5 C 2.198,5.712 1.26,5.32 1.26,4.256 Z m 2.782,6.412 v -3.5 c 1.2,0.294 2.226,0.672 2.226,1.778 0.004,0.896 -0.682,1.61 -2.226,1.722 z"
     id="path127" />
  <path
     class="a"
     d="m 14.726101,8.9169845 c 0,-1.876 -1.666,-2.324 -3.248,-2.7 v -3.71 a 5.19,5.19 0 0 1 2.496,0.81 l 0.35,-0.826 a 5.493,5.493 0 0 0 -2.85,-0.868 V 0.02298448 h -0.7 V 1.6329845 c -2.138,0.174 -3.1000001,1.334 -3.1000001,2.674 0,1.852 1.5640001,2.328 3.1000001,2.706 V 10.694984 A 4.772,4.772 0 0 1 7.8341009,9.5189845 l -0.406,0.7999995 a 5.25,5.25 0 0 0 3.3460001,1.272 v 1.6 h 0.7 v -1.614 c 2.23,-0.126 3.252,-1.302 3.252,-2.6599995 z m -6.034,-4.634 c 0,-0.882 0.644,-1.624 2.086,-1.75 v 3.5 c -1.148,-0.294 -2.086,-0.686 -2.086,-1.75 z m 2.782,6.4119995 V 7.1949845 c 1.2,0.294 2.226,0.672 2.226,1.778 0.004,0.896 -0.682,1.6099995 -2.226,1.7219995 z"
     id="path127-3"
     style="fill:#3145c3" />
  <path
     class="a"
     d="m -0.30156498,8.8289488 c 0,-1.876 -1.66599992,-2.324 -3.24799992,-2.7 v -3.71 a 5.19,5.19 0 0 1 2.496,0.81 l 0.35000002,-0.826 A 5.493,5.493 0 0 0 -3.5535649,1.5349486 v -1.60000014 h -0.7 V 1.5449486 c -2.138,0.174 -3.1,1.3340002 -3.1,2.6740002 0,1.852 1.564,2.328 3.1,2.706 v 3.6820052 a 4.772,4.772 0 0 1 -2.94,-1.1760052 l -0.406,0.8000022 a 5.25,5.25 0 0 0 3.346,1.27201 v 1.6 h 0.7 v -1.614 c 2.23,-0.126 3.25199992,-1.302011 3.25199992,-2.6600122 z m -6.03399992,-4.634 c 0,-0.882 0.644,-1.624 2.086,-1.75 v 3.5 c -1.148,-0.294 -2.086,-0.686 -2.086,-1.75 z m 2.782,6.4120052 V 7.1069488 c 1.2,0.294 2.226,0.672 2.226,1.778 0.004,0.896 -0.682,1.6100052 -2.226,1.7220052 z"
     id="path127-1"
     style="fill:#3145c3" />
</svg>
